<svg width="33" height="33" viewBox="0 0 33 33" fill="none" xmlns="http://www.w3.org/2000/svg">
<g clip-path="url(#clip0_318_23)">
<path d="M15.125 5.49885H5.5C4.77065 5.49885 4.07118 5.78858 3.55546 6.3043C3.03973 6.82003 2.75 7.5195 2.75 8.24885V27.4988C2.75 28.2282 3.03973 28.9277 3.55546 29.4434C4.07118 29.9591 4.77065 30.2488 5.5 30.2488H24.75C25.4793 30.2488 26.1788 29.9591 26.6945 29.4434C27.2103 28.9277 27.5 28.2282 27.5 27.4988V17.8738M25.4375 3.43635C25.9845 2.88934 26.7264 2.58203 27.5 2.58203C28.2736 2.58203 29.0155 2.88934 29.5625 3.43635C30.1095 3.98336 30.4168 4.72526 30.4168 5.49885C30.4168 6.27243 30.1095 7.01434 29.5625 7.56135L16.5 20.6238L11 21.9988L12.375 16.4988L25.4375 3.43635Z" stroke="#1E1E1E" stroke-width="4" stroke-linecap="round" stroke-linejoin="round"/>
</g>
<defs>
<clipPath id="clip0_318_23">
<rect width="33" height="33" fill="white"/>
</clipPath>
</defs>
</svg>
